<svg xmlns="http://www.w3.org/2000/svg" width="37.337" height="34.99" viewBox="0 0 37.337 34.99">
  <g id="Groupe_2711" data-name="Groupe 2711" transform="translate(0.438 0.421)">
    <g id="Groupe_527" data-name="Groupe 527" transform="translate(5.437 0.829)">
      <path id="Tracé_8730" data-name="Tracé 8730" d="M0,8.372v-21.05H12.793M19.9,8.372H5.685m19.9,0v-21.05H12.793v8.524a3.025,3.025,0,0,0-4.481-.159.6.6,0,0,0-.073.085C6.6-1.736,8.252.935,10.505.934A3.026,3.026,0,0,0,12.793-.137V8.372" transform="translate(0 12.678)" fill="none" stroke="#00a3af" stroke-linecap="round" stroke-linejoin="round" stroke-width="2.5"/>
    </g>
    <g id="Groupe_528" data-name="Groupe 528" transform="translate(0.83 8.127)">
      <path id="Tracé_8731" data-name="Tracé 8731" d="M1.728,5.769,4.561-.194A1.527,1.527,0,0,1,6.832-.828a1.671,1.671,0,0,1,.7,1.373V9.41a8.071,8.071,0,0,1-.216,1.851l-1.234,5.2H-.447l-1.86-9.295a16,16,0,0,1,1.22-9.974L1.728-8.736m26.107,14.5L25-.194a1.527,1.527,0,0,0-2.271-.634,1.672,1.672,0,0,0-.7,1.373V9.41a8.071,8.071,0,0,0,.216,1.851l1.235,5.2h6.527L31.87,7.162a15.978,15.978,0,0,0-1.22-9.974L27.836-8.736" transform="translate(2.617 8.736)" fill="none" stroke="#00a3af" stroke-linecap="round" stroke-linejoin="round" stroke-width="2.5"/>
    </g>
  </g>
</svg>
