<svg id="Groupe_2713" data-name="Groupe 2713" xmlns="http://www.w3.org/2000/svg" xmlns:xlink="http://www.w3.org/1999/xlink" width="70" height="70" viewBox="0 0 70 70">
  <defs>
    <clipPath id="clip-path">
      <rect id="Rectangle_1672" data-name="Rectangle 1672" width="70" height="70" fill="none"/>
    </clipPath>
  </defs>
  <g id="Groupe_2712" data-name="Groupe 2712" clip-path="url(#clip-path)">
    <path id="Tracé_42822" data-name="Tracé 42822" d="M69.348,65.542V27.669a1.7,1.7,0,0,0-1.21-1.621,36.524,36.524,0,0,0-4.9-1.085l-.425-.064V20.681a1.691,1.691,0,0,0-1.144-1.6A25.948,25.948,0,0,0,53.9,17.669l-.444-.012-.041-.443a18.737,18.737,0,0,0-37.322,0l-.04.443-.445.012A25.96,25.96,0,0,0,7.856,19.08a1.693,1.693,0,0,0-1.145,1.6V24.9l-.426.064a36.524,36.524,0,0,0-4.9,1.085A1.7,1.7,0,0,0,.169,27.675V65.542a1.7,1.7,0,0,0,2.174,1.625c5.8-1.716,11.932-3.186,17.543-3.186,5.257,0,10.054,1.29,13.681,4.877a1.7,1.7,0,0,0,2.381,0c7.5-7.412,19.993-5.014,31.226-1.691a1.7,1.7,0,0,0,2.174-1.625M34.763,3.555h.006a15.353,15.353,0,0,1,8.373,28.219A6.343,6.343,0,0,0,40.2,37.2v1.332H36.383l.064-.557a1.679,1.679,0,0,0,.012-.188V19.553a1.712,1.712,0,0,0-1.693-1.735h-.033a1.7,1.7,0,0,0-1.66,1.725V37.792a1.426,1.426,0,0,0,.012.182l.071.563H29.333V37.21a6.346,6.346,0,0,0-2.94-5.434,15.353,15.353,0,0,1,8.37-28.221M3.563,63.317V28.961l.383-.093c.724-.173,1.461-.325,2.189-.451l.585-.1V55.969a1.692,1.692,0,0,0,1.691,1.692h0a1.675,1.675,0,0,0,.55-.092,22.624,22.624,0,0,1,22.361,4.4l-.547.826C22.614,58.871,12.284,60.9,4.2,63.116l-.632.2Zm29.506-4.333-.805-.619a26.022,26.022,0,0,0-21.547-4.8l-.608.135V22.3l.008-.341.359-.139a22.533,22.533,0,0,1,5.215-.765l.449-.013.061.444a18.669,18.669,0,0,0,8.332,13.123,3.009,3.009,0,0,1,1.41,2.615v8.814a4.206,4.206,0,0,0,4.194,4.192h2.932ZM30.136,46.843a.812.812,0,0,1-.807-.8V41.923H40.195v4.114a.813.813,0,0,1-.8.806Zm6.319,12.141V50.227l2.935,0a4.208,4.208,0,0,0,4.192-4.194V37.212A3.006,3.006,0,0,1,45,34.6a18.659,18.659,0,0,0,8.321-13.12l.061-.445.449.013a22.559,22.559,0,0,1,5.22.765l.37.1V53.7l-.607-.135a26.024,26.024,0,0,0-21.554,4.8Zm28.882,4.134c-8.093-2.21-18.429-4.244-26.583-.324l-.547-.825a22.622,22.622,0,0,1,22.361-4.4,1.694,1.694,0,0,0,2.24-1.6V28.318l.583.1c.733.124,1.47.276,2.193.451l.382.092,0,34.331Z" fill="#fff" fill-rule="evenodd"/>
  </g>
</svg>
