<svg xmlns="http://www.w3.org/2000/svg" width="34.779" height="34.659" viewBox="0 0 34.779 34.659">
  <g id="Groupe_531" data-name="Groupe 531" transform="translate(1.25 1.25)">
    <path id="Tracé_8733" data-name="Tracé 8733" d="M5.16,4.284a2.68,2.68,0,1,0,2.692,2.68A2.685,2.685,0,0,0,5.16,4.284Zm0-4.02a6.7,6.7,0,1,0,6.725,6.7A6.713,6.713,0,0,0,5.161.264Zm0-4.019V.264m6.725,6.7h4.035M5.16-9.115A2.684,2.684,0,0,0,2.471-6.437,2.685,2.685,0,0,0,5.16-3.755,2.687,2.687,0,0,0,7.851-6.437,2.685,2.685,0,0,0,5.16-9.115ZM.454,16.344a3.35,3.35,0,1,0,0,6.7,3.35,3.35,0,1,0,0-6.7ZM18.61,4.284a2.68,2.68,0,1,0,2.69,2.68A2.685,2.685,0,0,0,18.61,4.284Zm-26.9,6.03a2.684,2.684,0,0,0-2.687,2.68,2.684,2.684,0,0,0,2.687,2.68A2.687,2.687,0,0,0-5.6,12.994,2.687,2.687,0,0,0-8.291,10.314Zm26.229,6.03A3.35,3.35,0,1,0,21.3,19.693,3.354,3.354,0,0,0,17.939,16.344ZM-6.944-9.115A4.026,4.026,0,0,0-10.978-5.1a4.026,4.026,0,0,0,4.034,4.02A4.026,4.026,0,0,0-2.909-5.1,4.026,4.026,0,0,0-6.944-9.115Zm2.853,6.862,4.5,4.481m-6.243,9.667L-.972,9.713M1.617,16.55l1.219-3.3M15.56,17.325,9.915,11.7" transform="translate(10.978 9.115)" fill="none" stroke="#00a3af" stroke-linecap="round" stroke-linejoin="round" stroke-width="2.5"/>
  </g>
</svg>
