<svg xmlns="http://www.w3.org/2000/svg" xmlns:xlink="http://www.w3.org/1999/xlink" width="42.504" height="46.245" viewBox="0 0 42.504 46.245">
  <defs>
    <clipPath id="clip-path">
      <path id="Tracé_8729" data-name="Tracé 8729" d="M0,21.273H42.5V-24.972H0Z" transform="translate(-2.656 22.078)" fill="none"/>
    </clipPath>
  </defs>
  <g id="Groupe_1729" data-name="Groupe 1729" transform="translate(2.656 2.894)">
    <g id="Groupe_525" data-name="Groupe 525" clip-path="url(#clip-path)">
      <g id="Groupe_524" data-name="Groupe 524" transform="translate(0.81 0.809)">
        <path id="Tracé_8728" data-name="Tracé 8728" d="M6.807,5.884V.22M9.233-1.8,6.807.625,4.382-1.8m8.893-1.213A6.47,6.47,0,0,0,6.807-9.489,6.47,6.47,0,0,0,.34-3.017a6.467,6.467,0,0,0,3.234,5.6V6.692a3.234,3.234,0,1,0,6.467,0V2.584A6.467,6.467,0,0,0,13.275-3.017Zm-9.7,8.9h6.467M-9.45,20.117-10.5,21.171a1.634,1.634,0,0,0,0,2.3l5.382,5.4a1.618,1.618,0,0,0,2.3,0L-1.753,27.8a1.63,1.63,0,0,0,0-2.307l-5.4-5.377A1.62,1.62,0,0,0-9.45,20.117Zm2.438.105,4.685-4.6c.661-.65,1.73-1.646,2.667-1.646H12.057a2.023,2.023,0,0,1,0,4.045H8.424m-.808,0H16.4a2.717,2.717,0,0,0,1.594-.552c.928-.68,2.569-1.889,3.712-2.733a1.831,1.831,0,0,1,2.378.181,1.74,1.74,0,0,1-.12,2.569l-6.5,5.456a6.124,6.124,0,0,1-3.783,1.552H1.633a9.1,9.1,0,0,0-3.621.763M-3.7-2.207H-5.319m3.234,4.854-1.617.81M-2.085-7.871-3.7-8.681M17.317-2.207h1.617M15.7,2.647l1.617.81M15.7-7.871l1.617-.81" transform="translate(10.978 9.489)" fill="none" stroke="#00a3af" stroke-linecap="round" stroke-linejoin="round" stroke-width="2.5"/>
      </g>
    </g>
  </g>
</svg>
