<svg id="Groupe_1720" data-name="Groupe 1720" xmlns="http://www.w3.org/2000/svg" xmlns:xlink="http://www.w3.org/1999/xlink" width="65.056" height="76.231" viewBox="0 0 65.056 76.231">
  <defs>
    <clipPath id="clip-path">
      <rect id="Rectangle_774" data-name="Rectangle 774" width="65.056" height="76.231" fill="#00a3af"/>
    </clipPath>
  </defs>
  <g id="Groupe_1719" data-name="Groupe 1719" transform="translate(0 0)" clip-path="url(#clip-path)">
    <path id="Tracé_22858" data-name="Tracé 22858" d="M11.386,14.257a1.789,1.789,0,0,1,1.789-1.789h9.735a1.789,1.789,0,1,1,0,3.579H13.167a1.788,1.788,0,0,1-1.781-1.789m1.781,12.769H35.826a1.789,1.789,0,0,0,0-3.579H13.167a1.789,1.789,0,0,0,0,3.579m0,6.881H35.826a1.789,1.789,0,0,0,0-3.579H13.167a1.789,1.789,0,1,0,0,3.579m0,6.889H35.826a1.789,1.789,0,0,0,0-3.579H13.167a1.789,1.789,0,0,0,0,3.579m17.445,6.889a1.789,1.789,0,1,0,0-3.579H13.167a1.789,1.789,0,1,0,0,3.579ZM55.223,58.176a1.789,1.789,0,0,0-1.789,1.789v3.229a.693.693,0,0,1-.2.024H41.169a.732.732,0,0,1-.2-.024V59.965a1.789,1.789,0,1,0-3.579,0V63.5a3.557,3.557,0,0,0,3.774,3.286H53.223A3.557,3.557,0,0,0,57,63.5V59.965a1.77,1.77,0,0,0-1.773-1.789m-9.28,2.619a1.787,1.787,0,0,0,2.521,0l3.888-3.888a1.789,1.789,0,0,0-2.529-2.529l-.846.846.008-6.628a1.785,1.785,0,1,0-3.57-.008l-.008,6.628-.838-.838a1.789,1.789,0,0,0-2.529,2.529Zm19.113-2.424A17.852,17.852,0,0,1,29.442,60.16H1.789A1.789,1.789,0,0,1,0,58.371V1.789A1.789,1.789,0,0,1,1.789,0H32.548a1.781,1.781,0,0,1,1.244.5L48.44,14.761a1.8,1.8,0,0,1,.545,1.277V40.6A17.884,17.884,0,0,1,65.056,58.371M34.338,14.257H42.8L34.338,6.018ZM3.579,56.581H29.442A17.894,17.894,0,0,1,45.423,40.6V17.828H32.557a1.789,1.789,0,0,1-1.789-1.789V3.57H3.579Zm57.907,1.789A14.282,14.282,0,1,0,47.2,72.652,14.3,14.3,0,0,0,61.486,58.371" transform="translate(0 0)" fill="#00a3af"/>
  </g>
</svg>
