<svg id="Groupe_1724" data-name="Groupe 1724" xmlns="http://www.w3.org/2000/svg" xmlns:xlink="http://www.w3.org/1999/xlink" width="23.492" height="23.448" viewBox="0 0 23.492 23.448">
  <defs>
    <clipPath id="clip-path">
      <rect id="Rectangle_776" data-name="Rectangle 776" width="23.492" height="23.448"/>
    </clipPath>
  </defs>
  <g id="Groupe_1723" data-name="Groupe 1723" clip-path="url(#clip-path)">
    <path id="Tracé_22860" data-name="Tracé 22860" d="M23.492,216.717v5.2a1.183,1.183,0,0,1-.037.288,1.117,1.117,0,0,1-1.087.9H1.117a1.113,1.113,0,0,1-1.1-.991.876.876,0,0,1-.015-.2v-5.2a1.11,1.11,0,0,1,2.219,0v4.164H21.281V216.71a1.109,1.109,0,0,1,1.894-.784,1.172,1.172,0,0,1,.318.791" transform="translate(0 -199.653)"/>
    <path id="Tracé_22861" data-name="Tracé 22861" d="M80.466,11.857l-5.451,5.451c-.007.015-.022.022-.03.03a1.285,1.285,0,0,1-.717.362c-.022,0-.044.007-.067.007a.8.8,0,0,1-.133.007l-.126-.007c-.022,0-.044-.007-.067-.007a1.262,1.262,0,0,1-.717-.362l-.03-.03-5.451-5.451a1.3,1.3,0,0,1,1.834-1.834L72.788,13.3v-12A1.3,1.3,0,0,1,74.083,0,1.323,1.323,0,0,1,75,.377a1.279,1.279,0,0,1,.377.917v12l3.277-3.277a1.3,1.3,0,0,1,1.834,0,1.325,1.325,0,0,1-.022,1.834" transform="translate(-62.322)"/>
  </g>
</svg>
