<svg xmlns="http://www.w3.org/2000/svg" width="49.945" height="49.938" viewBox="0 0 49.945 49.938">
  <g id="Groupe_2710" data-name="Groupe 2710" transform="translate(-4.382 -5.96)">
    <path id="Tracé_12182" data-name="Tracé 12182" d="M62.087,55.487a15.022,15.022,0,0,0-.42-11c-3.378-7.021-12.9-10.243-22.145-7.5a.882.882,0,0,0-.564,1.179c.411.992,1.029,2.51,1.75,4.377.963,2.485,1.44,3.863,1.756,4.778a20.1,20.1,0,0,0,.907,2.317c1.1,2.318,3.146,6.628,7.506,8.353a10.561,10.561,0,0,0,3.917.732,14.563,14.563,0,0,0,6.039-1.435,25.956,25.956,0,0,1,.928,4.385.88.88,0,0,0,.873.776c.034,0,.069,0,.106,0a.878.878,0,0,0,.768-.977,28.019,28.019,0,0,0-1.419-5.983ZM60.082,45.246a12.3,12.3,0,0,1,.865,7.51,26.54,26.54,0,0,0-3.8-5.826,27.322,27.322,0,0,0-14.846-8.8c7.659-1.419,15.046,1.427,17.784,7.114Zm.091,10.413c-1.9.9-5.307,2.02-8.648.7-3.714-1.472-5.5-5.228-6.563-7.473a18.738,18.738,0,0,1-.836-2.137c-.321-.925-.8-2.322-1.778-4.837-.3-.784-.584-1.5-.843-2.144a26,26,0,0,1,14.306,8.312,25.088,25.088,0,0,1,4.412,7.436c-.017.047-.035.1-.052.146Z" transform="translate(-9.539 -6.905)" fill="#00a3af" stroke="#00a3af" stroke-width="0.7"/>
    <path id="Tracé_12183" data-name="Tracé 12183" d="M27.553,37.176A18.456,18.456,0,0,1,2.312,24.619H6.6a3.962,3.962,0,0,0,3.957-3.957,2.2,2.2,0,0,1,2.2-2.2H25.941a3.076,3.076,0,1,0,0-6.153h-6.6a1.758,1.758,0,1,1,0-3.516h2.639a4.4,4.4,0,0,0,4.4-4.4V2.837a18.481,18.481,0,0,1,12.31,17.387,18.01,18.01,0,0,1-.108,2.01.879.879,0,1,0,1.746.2,19.745,19.745,0,0,0,.118-2.208,20.208,20.208,0,1,0-12.2,18.569.88.88,0,1,0-.7-1.615ZM20.226,1.757a18.407,18.407,0,0,1,4.4.551V4.4a2.641,2.641,0,0,1-2.639,2.639H19.345a3.516,3.516,0,0,0,0,7.033h6.6a1.318,1.318,0,0,1,0,2.636H12.753A3.962,3.962,0,0,0,8.8,20.659a2.2,2.2,0,0,1-2.2,2.2H1.973a18.333,18.333,0,0,1,18.255-21.1Z" transform="translate(4.732 6.309)" fill="#00a3af" stroke="#00a3af" stroke-width="0.7"/>
  </g>
</svg>
