<svg xmlns="http://www.w3.org/2000/svg" width="44.572" height="44.564" viewBox="0 0 44.572 44.564">
  <path id="Tracé_12185" data-name="Tracé 12185" d="M22.172,0a1.313,1.313,0,0,0-1.308,1.308V8.542a1.313,1.313,0,0,0,2.626,0V1.308A1.312,1.312,0,0,0,22.172,0ZM6.689,5.371a1.292,1.292,0,0,0-.926.386,1.308,1.308,0,0,0,0,1.853l0,0,5.118,5.108a1.31,1.31,0,0,0,1.853-1.853l0,0L7.615,5.757a1.3,1.3,0,0,0-.926-.386m9.964,9.924A1.312,1.312,0,0,0,15.3,16.563a1.425,1.425,0,0,0,.05.386L22.712,43.6a1.312,1.312,0,0,0,2.393.322L29.44,36.56l5.99,5.99a1.313,1.313,0,0,0,1.853,0h0l5.262-5.267a1.308,1.308,0,0,0,0-1.853v0L36.49,29.37,43.912,25.1a1.307,1.307,0,0,0,.486-1.789,1.321,1.321,0,0,0-.783-.609l-26.66-7.367A1.265,1.265,0,0,0,16.652,15.295Zm1.838,3.2,21.4,5.906-6.183,3.547a1.315,1.315,0,0,0-.49,1.789,1.279,1.279,0,0,0,.208.273l6.352,6.347L36.356,39.76l-6.263-6.253a1.313,1.313,0,0,0-1.853,0,1.382,1.382,0,0,0-.208.268l-3.617,6.154ZM1.318,20.854A1.312,1.312,0,0,0,0,22.162v.01a1.311,1.311,0,0,0,1.318,1.3H8.547a1.31,1.31,0,0,0,0-2.621Z" transform="translate(0 0)" fill="#00a3af"/>
</svg>
