<svg xmlns="http://www.w3.org/2000/svg" width="41.95" height="43.111" viewBox="0 0 41.95 43.111">
  <path id="Tracé_12176" data-name="Tracé 12176" d="M3.425,0A3.435,3.435,0,0,0,0,3.425v31.8a3.436,3.436,0,0,0,3.425,3.425H22.789a10.409,10.409,0,1,0,8.477-17.33V3.425A3.435,3.435,0,0,0,27.841,0Zm0,1.452H27.841a1.954,1.954,0,0,1,1.973,1.973v17.89A10.411,10.411,0,0,0,21.7,37.193H3.425a1.954,1.954,0,0,1-1.97-1.973V3.425a1.952,1.952,0,0,1,1.97-1.973M7.253,7.893a.727.727,0,0,0-.005,1.454H24.015a.726.726,0,0,0,.727-.724V8.617a.726.726,0,0,0-.727-.724Zm0,7.215a.727.727,0,0,0-.005,1.454H24.015a.726.726,0,0,0,.727-.724v-.005a.726.726,0,0,0-.727-.724Zm0,7.215a.73.73,0,0,0-.73.724v.005a.726.726,0,0,0,.727.724h13.5a.727.727,0,1,0,.005-1.454H7.253Zm23.288.42a8.959,8.959,0,1,1-6.817,14.781.787.787,0,0,0-.123-.145,8.966,8.966,0,0,1,6.94-14.635m4.2,5.478a.711.711,0,0,0-.447.209l-5.008,5.006-2.5-2.5a.726.726,0,0,0-1.026,1.026l0,0,3.013,3.008a.724.724,0,0,0,1.024,0l5.522-5.522a.723.723,0,0,0-.576-1.232" transform="translate(0.5 0.5)" fill="#00a3af" stroke="#00a3af" stroke-width="1"/>
</svg>
