<svg xmlns="http://www.w3.org/2000/svg" width="53.835" height="31.651" viewBox="0 0 53.835 31.651">
  <path id="Tracé_12177" data-name="Tracé 12177" d="M49.394,21.365a5.545,5.545,0,0,0-5.54-5.466H38.522V4.75a.951.951,0,0,0-.952-.952H30.038a.948.948,0,0,0-.673.278L24.8,8.645v0a.954.954,0,0,0-.278.674v2.737L17.778,1.511l-.126-.183h0a.894.894,0,0,0-.2-.207,3.338,3.338,0,0,0-5.776,2.832l-8.56,10.19A2.716,2.716,0,0,0,1.369,16.6a9.848,9.848,0,0,0-1.1,7.313A7.81,7.81,0,0,0,3.809,28.83a7.213,7.213,0,0,0,3.612.926,9.59,9.59,0,0,0,6.213-2.423c.007-.007.012-.016.019-.024s.019-.009.028-.019h0a1.014,1.014,0,0,0,.091-.136,1.166,1.166,0,0,0,.1-.152.9.9,0,0,0,.045-.178.56.56,0,0,0,.012-.357.916.916,0,0,0-.034-.176,1.044,1.044,0,0,0-.1-.169.841.841,0,0,0-.076-.133c-.007-.007-.017-.012-.024-.019a.2.2,0,0,0-.019-.029L6.164,18.416l0,0A2.714,2.714,0,0,0,6.781,17l7.389-8.8L23.053,21.95v0a4.892,4.892,0,0,0,2.473,9.119H48.388a4.906,4.906,0,0,0,1.006-9.707Zm-1.9-.109H26.42V17.8H43.854A3.645,3.645,0,0,1,47.49,21.256ZM26.42,9.712,30.432,5.7H36.62l0,10.2H26.42Zm-1.9,7.139v3.858l-9.043-14a3.342,3.342,0,0,0,2.363-1.559l6.68,10.443Zm-20.43-.995a.821.821,0,0,1,.581,1.4.821.821,0,0,1-1.4-.578.824.824,0,0,1,.821-.824m1.354-1.53,7.139-8.5.493.712-6.98,8.313h0a2.737,2.737,0,0,0-.656-.523Zm9.54-12.4a1.463,1.463,0,1,1-1.463,1.462A1.465,1.465,0,0,1,14.981,1.93ZM4.758,27.181a5.907,5.907,0,0,1-2.639-3.736,7.807,7.807,0,0,1,.29-4.636,2.707,2.707,0,0,0,1.677.6,2.718,2.718,0,0,0,.336-.036l7.142,7.151A6.545,6.545,0,0,1,4.758,27.181Zm43.63,1.987H25.526a3,3,0,0,1,0-6H48.388a3,3,0,1,1,0,6" transform="translate(0.272 0.329)" fill="#00a3af" stroke="#00a3af" stroke-width="0.5"/>
</svg>
