<svg id="Groupe_793" data-name="Groupe 793" xmlns="http://www.w3.org/2000/svg" xmlns:xlink="http://www.w3.org/1999/xlink" width="32.43" height="32.43" viewBox="0 0 32.43 32.43">
  <defs>
    <clipPath id="clip-path">
      <rect id="Rectangle_720" data-name="Rectangle 720" width="32.43" height="32.43" fill="#befceb"/>
    </clipPath>
  </defs>
  <g id="Groupe_792" data-name="Groupe 792" clip-path="url(#clip-path)">
    <path id="Tracé_12188" data-name="Tracé 12188" d="M189.908,185.512a3,3,0,1,1-3-3,3,3,0,0,1,3,3" transform="translate(-170.616 -169.32)" fill="#befceb"/>
    <path id="Tracé_12189" data-name="Tracé 12189" d="M129.072,117.242h-7.591a3.926,3.926,0,0,0-3.921,3.922v7.591a3.926,3.926,0,0,0,3.921,3.922h7.591a3.927,3.927,0,0,0,3.922-3.922v-7.591a3.927,3.927,0,0,0-3.922-3.922m-3.717,12.4a4.682,4.682,0,1,1,4.682-4.683,4.688,4.688,0,0,1-4.682,4.683m4.955-8.564a1.115,1.115,0,1,1,1.115-1.115,1.115,1.115,0,0,1-1.115,1.115" transform="translate(-109.062 -108.767)" fill="#befceb"/>
    <path id="Tracé_12190" data-name="Tracé 12190" d="M16.215,0A16.215,16.215,0,1,0,32.43,16.215,16.215,16.215,0,0,0,16.215,0m9.506,19.988A5.717,5.717,0,0,1,20.01,25.7H12.42a5.717,5.717,0,0,1-5.711-5.711V12.4A5.717,5.717,0,0,1,12.42,6.686H20.01A5.717,5.717,0,0,1,25.721,12.4Z" fill="#befceb"/>
  </g>
</svg>
