<svg width="33" height="33" viewBox="0 0 33 33" fill="none" xmlns="http://www.w3.org/2000/svg">
<rect width="33" height="33" rx="16.5" fill="#BEFCEB"/>
<path d="M14.4 19.65L19.8495 16.5L14.4 13.35V19.65ZM26.538 11.4285C26.6745 11.922 26.769 12.5835 26.832 13.4235C26.9055 14.2635 26.937 14.988 26.937 15.618L27 16.5C27 18.7995 26.832 20.49 26.538 21.5715C26.2755 22.5165 25.6665 23.1255 24.7215 23.388C24.228 23.5245 23.325 23.619 21.939 23.682C20.574 23.7555 19.3245 23.787 18.1695 23.787L16.5 23.85C12.1005 23.85 9.36 23.682 8.2785 23.388C7.3335 23.1255 6.7245 22.5165 6.462 21.5715C6.3255 21.078 6.231 20.4165 6.168 19.5765C6.0945 18.7365 6.063 18.012 6.063 17.382L6 16.5C6 14.2005 6.168 12.51 6.462 11.4285C6.7245 10.4835 7.3335 9.8745 8.2785 9.612C8.772 9.4755 9.675 9.381 11.061 9.318C12.426 9.2445 13.6755 9.213 14.8305 9.213L16.5 9.15C20.8995 9.15 23.64 9.318 24.7215 9.612C25.6665 9.8745 26.2755 10.4835 26.538 11.4285Z" fill="#00A3AF"/>
</svg>
