<svg xmlns="http://www.w3.org/2000/svg" xmlns:xlink="http://www.w3.org/1999/xlink" width="213.917" height="100.106" viewBox="0 0 213.917 100.106">
  <defs>
    <clipPath id="clip-path">
      <rect id="Rectangle_220" data-name="Rectangle 220" width="213.917" height="100.106" fill="none"/>
    </clipPath>
  </defs>
  <g id="Groupe_173" data-name="Groupe 173" transform="translate(0 0)">
    <g id="Groupe_172" data-name="Groupe 172" transform="translate(0 0)" clip-path="url(#clip-path)">
      <path id="Tracé_3063" data-name="Tracé 3063" d="M113.2,19.049s3.635,4.169,8.607,4.516H136.5a50.728,50.728,0,0,0-85.688,0h2.04a40.562,40.562,0,0,1,60.259-4.505Z" transform="translate(12.46 0)" fill="#00a3b0"/>
      <path id="Tracé_3064" data-name="Tracé 3064" d="M134.465,61.469a40.564,40.564,0,0,1-60.315,4.45h0l-.011-.011c-.288-.279-.57-.56-.853-.844a13.839,13.839,0,0,0-7.129-3.595H50.817a50.73,50.73,0,0,0,85.688,0Z" transform="translate(12.46 15.072)" fill="#11447e"/>
      <path id="Tracé_3065" data-name="Tracé 3065" d="M40.366,49.452c-5.285,0-9.415-2.625-9.589-7.594h6.369a2.817,2.817,0,0,0,3.046,2.8c1.748,0,2.869-.874,2.869-2.309,0-4.551-12.284-2.1-12.215-10.816,0-4.655,3.817-7.245,8.96-7.245,5.356,0,8.959,2.658,9.2,7.35H42.535A2.659,2.659,0,0,0,39.7,29.082a2.178,2.178,0,0,0-2.519,2.24c0,4.271,12.144,2.345,12.144,10.57,0,4.13-3.219,7.56-8.959,7.56" transform="translate(7.546 5.955)" fill="#00a3b0"/>
      <path id="Tracé_3066" data-name="Tracé 3066" d="M62.972,29.363H53.907v4.97h8.014v4.622H53.907v5.388h9.065v4.8H47.923V24.569H62.972Z" transform="translate(11.75 6.024)" fill="#00a3b0"/>
      <path id="Tracé_3067" data-name="Tracé 3067" d="M79.522,24.569h6.336L77.141,49.138h-7.49L60.937,24.569h6.369l6.09,18.55Z" transform="translate(14.941 6.024)" fill="#00a3b0"/>
      <path id="Tracé_3068" data-name="Tracé 3068" d="M97.293,29.363H88.228v4.97h8.014v4.622H88.228v5.388h9.065v4.8H82.243V24.569H97.293Z" transform="translate(20.165 6.024)" fill="#00a3b0"/>
      <path id="Tracé_3069" data-name="Tracé 3069" d="M109,24.569h19.005v4.794H121.5V49.138h-5.986V29.363H109Z" transform="translate(26.727 6.024)" fill="#11447e"/>
      <path id="Tracé_3070" data-name="Tracé 3070" d="M135.221,35.559c2.38,0,3.394-1.19,3.394-3.081S137.6,29.4,135.221,29.4h-3.256v6.16Zm.455,4.759h-3.711v8.821H125.98V24.569h9.7c6.02,0,9.03,3.394,9.03,7.909,0,4.059-2.764,7.84-9.03,7.84" transform="translate(30.889 6.024)" fill="#11447e"/>
      <rect id="Rectangle_217" data-name="Rectangle 217" width="11.799" height="4.595" transform="translate(122.958 42.247)" fill="#11447e"/>
      <path id="Tracé_3071" data-name="Tracé 3071" d="M0,50.643V57.88H3.993v-.968H1.185V54.7h2.5v-.968h-2.5V51.609H3.993v-.966Zm.717-1.28v.873l2.3-1.132v-1.01Z" transform="translate(0 11.792)" fill="#11447e"/>
      <path id="Tracé_3072" data-name="Tracé 3072" d="M4.385,51.862a3.535,3.535,0,0,1,1.341-1.316,3.749,3.749,0,0,1,1.857-.472,3.781,3.781,0,0,1,2.055.565,3.232,3.232,0,0,1,1.3,1.608H9.517a1.9,1.9,0,0,0-.781-.853,2.309,2.309,0,0,0-1.153-.28,2.535,2.535,0,0,0-1.28.321,2.253,2.253,0,0,0-.878.926,3.263,3.263,0,0,0,0,2.808A2.289,2.289,0,0,0,6.3,56.1a2.5,2.5,0,0,0,1.28.326,2.309,2.309,0,0,0,1.153-.28,1.907,1.907,0,0,0,.781-.854h1.425a3.207,3.207,0,0,1-1.3,1.6,3.821,3.821,0,0,1-2.055.56,3.739,3.739,0,0,1-1.862-.473,3.536,3.536,0,0,1-1.336-1.315,3.92,3.92,0,0,1,0-3.807" transform="translate(0.954 12.278)" fill="#11447e"/>
      <path id="Tracé_3073" data-name="Tracé 3073" d="M15.151,56.11a2.276,2.276,0,0,0,.878-.935,3.265,3.265,0,0,0,0-2.814,2.239,2.239,0,0,0-.878-.924,2.7,2.7,0,0,0-2.558,0,2.223,2.223,0,0,0-.878.924,3.265,3.265,0,0,0,0,2.814,2.26,2.26,0,0,0,.878.935,2.661,2.661,0,0,0,2.558,0m-3.135.884a3.5,3.5,0,0,1-1.341-1.32,3.923,3.923,0,0,1,0-3.813,3.52,3.52,0,0,1,1.341-1.314,3.889,3.889,0,0,1,3.723,0,3.481,3.481,0,0,1,1.336,1.314,3.958,3.958,0,0,1,0,3.813,3.462,3.462,0,0,1-1.336,1.32,3.889,3.889,0,0,1-3.723,0" transform="translate(2.496 12.277)" fill="#11447e"/>
      <rect id="Rectangle_218" data-name="Rectangle 218" width="4.272" height="0.997" transform="translate(21.141 65.409)" fill="#11447e"/>
      <path id="Tracé_3074" data-name="Tracé 3074" d="M21.772,51.862a3.535,3.535,0,0,1,1.341-1.316,3.955,3.955,0,0,1,3.911.093,3.232,3.232,0,0,1,1.3,1.608H26.9a1.9,1.9,0,0,0-.781-.853,2.309,2.309,0,0,0-1.153-.28,2.535,2.535,0,0,0-1.28.321,2.253,2.253,0,0,0-.878.926,3.263,3.263,0,0,0,0,2.808,2.289,2.289,0,0,0,.878.931,2.5,2.5,0,0,0,1.28.326,2.309,2.309,0,0,0,1.153-.28,1.907,1.907,0,0,0,.781-.854h1.425a3.207,3.207,0,0,1-1.3,1.6,3.821,3.821,0,0,1-2.055.56,3.747,3.747,0,0,1-1.863-.473,3.542,3.542,0,0,1-1.335-1.315,3.92,3.92,0,0,1,0-3.807" transform="translate(5.217 12.278)" fill="#11447e"/>
      <path id="Tracé_3075" data-name="Tracé 3075" d="M32.537,56.11a2.276,2.276,0,0,0,.878-.935,3.265,3.265,0,0,0,0-2.814,2.239,2.239,0,0,0-.878-.924,2.7,2.7,0,0,0-2.558,0,2.223,2.223,0,0,0-.878.924,3.265,3.265,0,0,0,0,2.814,2.26,2.26,0,0,0,.878.935,2.661,2.661,0,0,0,2.558,0m-3.135.884a3.5,3.5,0,0,1-1.341-1.32,3.923,3.923,0,0,1,0-3.813A3.52,3.52,0,0,1,29.4,50.547a3.889,3.889,0,0,1,3.723,0,3.481,3.481,0,0,1,1.336,1.314,3.958,3.958,0,0,1,0,3.813,3.462,3.462,0,0,1-1.336,1.32,3.889,3.889,0,0,1-3.723,0" transform="translate(6.759 12.277)" fill="#11447e"/>
      <path id="Tracé_3076" data-name="Tracé 3076" d="M41.876,50.149v7.227H40.691V52.425l-2.205,4.951h-.822L35.45,52.425v4.951H34.263V50.149h1.281l2.536,5.668,2.526-5.668Z" transform="translate(8.401 12.296)" fill="#11447e"/>
      <path id="Tracé_3077" data-name="Tracé 3077" d="M44.967,53.169A1.122,1.122,0,0,0,45.3,52.3q0-1.186-1.34-1.185H42.647v2.361h1.311a1.45,1.45,0,0,0,1.009-.308m1.289.172a1.944,1.944,0,0,1-.832.8,3.09,3.09,0,0,1-1.466.308H42.647v2.931H41.462V50.149h2.5a3.151,3.151,0,0,1,1.408.285,1.978,1.978,0,0,1,.863.776,2.117,2.117,0,0,1,.286,1.091,2.182,2.182,0,0,1-.26,1.04" transform="translate(10.166 12.296)" fill="#11447e"/>
      <path id="Tracé_3078" data-name="Tracé 3078" d="M50.372,54.935,49.2,51.575l-1.187,3.36Zm.332.966H47.68l-.522,1.477H45.922l2.589-7.237h1.372l2.59,7.237H51.225Z" transform="translate(11.26 12.294)" fill="#11447e"/>
      <path id="Tracé_3079" data-name="Tracé 3079" d="M53.1,53.538h1.31a1.373,1.373,0,0,0,1-.332,1.192,1.192,0,0,0,.339-.894,1.154,1.154,0,0,0-.332-.878,1.414,1.414,0,0,0-1.009-.318H53.1Zm2.568,3.838-1.664-2.891h-.9v2.891H51.917V50.149h2.5a3.116,3.116,0,0,1,1.408.291,2.016,2.016,0,0,1,.863.779,2.125,2.125,0,0,1,.286,1.092A2.161,2.161,0,0,1,56.56,53.6a2.079,2.079,0,0,1-1.264.786l1.789,2.995Z" transform="translate(12.73 12.296)" fill="#11447e"/>
      <path id="Tracé_3080" data-name="Tracé 3080" d="M61.136,54.935l-1.174-3.36-1.187,3.36Zm.332.966H58.444l-.522,1.477H56.686l2.589-7.237h1.372l2.59,7.237H61.989Z" transform="translate(13.899 12.294)" fill="#11447e"/>
      <path id="Tracé_3081" data-name="Tracé 3081" d="M67.424,50.149v.968H65.5v6.26H64.315v-6.26H62.381v-.968Z" transform="translate(15.295 12.296)" fill="#11447e"/>
      <path id="Tracé_3082" data-name="Tracé 3082" d="M68.41,51.108V53.23h2.5V54.2h-2.5v2.215h2.807v.966H67.225V50.14h3.992v.968Z" transform="translate(16.483 12.294)" fill="#11447e"/>
      <path id="Tracé_3083" data-name="Tracé 3083" d="M72.61,50.149v4.607a1.639,1.639,0,0,0,.432,1.236,1.956,1.956,0,0,0,2.412,0,1.639,1.639,0,0,0,.432-1.236V50.149h1.185v4.586a2.764,2.764,0,0,1-.385,1.5,2.39,2.39,0,0,1-1.03.915,3.312,3.312,0,0,1-1.424.3,3.278,3.278,0,0,1-1.42-.3,2.332,2.332,0,0,1-1.015-.915,2.828,2.828,0,0,1-.374-1.5V50.149Z" transform="translate(17.513 12.296)" fill="#11447e"/>
      <path id="Tracé_3084" data-name="Tracé 3084" d="M78.215,53.538h1.31a1.373,1.373,0,0,0,1-.332,1.192,1.192,0,0,0,.339-.894,1.154,1.154,0,0,0-.332-.878,1.414,1.414,0,0,0-1.009-.318h-1.31Zm2.568,3.838-1.664-2.891h-.9v2.891H77.028V50.149h2.5a3.116,3.116,0,0,1,1.408.291,2.016,2.016,0,0,1,.863.779,2.125,2.125,0,0,1,.286,1.092,2.161,2.161,0,0,1-.411,1.284,2.079,2.079,0,0,1-1.264.786L82.2,57.376Z" transform="translate(18.887 12.296)" fill="#11447e"/>
      <path id="Tracé_3085" data-name="Tracé 3085" d="M88.449,55.722a2.642,2.642,0,0,0,.676-1.934,2.738,2.738,0,0,0-.676-1.966,2.57,2.57,0,0,0-1.945-.706H85.328v5.292H86.5a2.614,2.614,0,0,0,1.945-.686m.077-5.131a3.154,3.154,0,0,1,1.342,1.269,3.811,3.811,0,0,1,.472,1.929,3.733,3.733,0,0,1-.472,1.913,3.125,3.125,0,0,1-1.342,1.243,4.49,4.49,0,0,1-2.022.431H84.143V50.149H86.5a4.395,4.395,0,0,1,2.022.442" transform="translate(20.631 12.296)" fill="#11447e"/>
      <path id="Tracé_3086" data-name="Tracé 3086" d="M91.083,51.108V53.23h2.5V54.2h-2.5v2.215H93.89v.966H89.9V50.14H93.89v.968Z" transform="translate(22.042 12.294)" fill="#11447e"/>
      <path id="Tracé_3087" data-name="Tracé 3087" d="M95.212,57.213a2.15,2.15,0,0,1-.915-.723,1.835,1.835,0,0,1-.334-1.091h1.27a1.151,1.151,0,0,0,.369.77,1.311,1.311,0,0,0,.92.3,1.422,1.422,0,0,0,.956-.3.965.965,0,0,0,.344-.765.831.831,0,0,0-.214-.593,1.394,1.394,0,0,0-.53-.354,7.928,7.928,0,0,0-.878-.27,8.142,8.142,0,0,1-1.149-.38,1.893,1.893,0,0,1-.753-.6,1.716,1.716,0,0,1-.313-1.081A1.915,1.915,0,0,1,94.3,51.04a2.01,2.01,0,0,1,.873-.717,3.2,3.2,0,0,1,1.3-.249,2.71,2.71,0,0,1,1.721.524,1.946,1.946,0,0,1,.745,1.442H97.624a.949.949,0,0,0-.375-.676,1.373,1.373,0,0,0-.9-.281,1.291,1.291,0,0,0-.833.26.909.909,0,0,0-.321.748.76.76,0,0,0,.2.545,1.392,1.392,0,0,0,.516.337,7.326,7.326,0,0,0,.852.271,8.985,8.985,0,0,1,1.17.395,1.962,1.962,0,0,1,.77.608,1.76,1.76,0,0,1,.318,1.1,1.971,1.971,0,0,1-.3,1.04,2.146,2.146,0,0,1-.862.784,2.844,2.844,0,0,1-1.337.3,3.243,3.243,0,0,1-1.31-.255" transform="translate(23.039 12.278)" fill="#11447e"/>
      <path id="Tracé_3088" data-name="Tracé 3088" d="M105.73,50.149v.968h-1.924v6.26H102.62v-6.26h-1.934v-.968Z" transform="translate(24.688 12.296)" fill="#11447e"/>
      <path id="Tracé_3089" data-name="Tracé 3089" d="M106.717,53.538h1.31a1.373,1.373,0,0,0,1-.332,1.2,1.2,0,0,0,.339-.894,1.159,1.159,0,0,0-.332-.878,1.416,1.416,0,0,0-1.009-.318h-1.31Zm2.568,3.838-1.664-2.891h-.9v2.891H105.53V50.149h2.5a3.123,3.123,0,0,1,1.408.291,2.016,2.016,0,0,1,.863.779,2.125,2.125,0,0,1,.286,1.092,2.153,2.153,0,0,1-.412,1.284,2.072,2.072,0,0,1-1.264.786l1.791,2.995Z" transform="translate(25.875 12.296)" fill="#11447e"/>
      <path id="Tracé_3090" data-name="Tracé 3090" d="M114.749,54.935l-1.174-3.36-1.187,3.36Zm.332.966h-3.025l-.522,1.477H110.3l2.589-7.237h1.372l2.59,7.237H115.6Z" transform="translate(27.044 12.294)" fill="#11447e"/>
      <path id="Tracé_3091" data-name="Tracé 3091" d="M122.638,50.149l-2.713,7.227h-1.373l-2.724-7.227H117.1l2.142,6.011,2.152-6.011Z" transform="translate(28.4 12.296)" fill="#11447e"/>
      <path id="Tracé_3092" data-name="Tracé 3092" d="M126.032,54.935l-1.174-3.36-1.188,3.36Zm.332.966h-3.025l-.522,1.477H121.58l2.59-7.237h1.371l2.59,7.237h-1.246Z" transform="translate(29.811 12.294)" fill="#11447e"/>
      <path id="Tracé_3093" data-name="Tracé 3093" d="M128.753,50.149v4.607a1.639,1.639,0,0,0,.432,1.236,1.956,1.956,0,0,0,2.412,0,1.639,1.639,0,0,0,.432-1.236V50.149h1.185v4.586a2.764,2.764,0,0,1-.385,1.5,2.39,2.39,0,0,1-1.03.915,3.312,3.312,0,0,1-1.424.3,3.278,3.278,0,0,1-1.42-.3,2.322,2.322,0,0,1-1.014-.915,2.817,2.817,0,0,1-.375-1.5V50.149Z" transform="translate(31.279 12.296)" fill="#11447e"/>
      <path id="Tracé_3094" data-name="Tracé 3094" d="M136.539,53.768l2.246,3.609h-1.331l-1.634-2.62-1.528,2.62h-1.32l2.245-3.609-2.255-3.619h1.33l1.644,2.642,1.539-2.642H138.8Z" transform="translate(32.602 12.296)" fill="#11447e"/>
      <path id="Tracé_3095" data-name="Tracé 3095" d="M144.025,53.169a1.122,1.122,0,0,0,.331-.868q0-1.186-1.341-1.185h-1.31v2.361h1.31a1.452,1.452,0,0,0,1.01-.308m1.289.172a1.941,1.941,0,0,1-.833.8,3.084,3.084,0,0,1-1.466.308h-1.31v2.931h-1.187V50.149h2.5a3.153,3.153,0,0,1,1.41.285,1.978,1.978,0,0,1,.863.776,2.117,2.117,0,0,1,.286,1.091,2.182,2.182,0,0,1-.26,1.04" transform="translate(34.454 12.296)" fill="#11447e"/>
      <path id="Tracé_3096" data-name="Tracé 3096" d="M146.5,50.149v4.607a1.639,1.639,0,0,0,.432,1.236,1.956,1.956,0,0,0,2.412,0,1.639,1.639,0,0,0,.432-1.236V50.149h1.185v4.586a2.764,2.764,0,0,1-.385,1.5,2.389,2.389,0,0,1-1.03.915,3.313,3.313,0,0,1-1.425.3,3.278,3.278,0,0,1-1.42-.3,2.322,2.322,0,0,1-1.014-.915,2.817,2.817,0,0,1-.375-1.5V50.149Z" transform="translate(35.63 12.296)" fill="#11447e"/>
      <path id="Tracé_3097" data-name="Tracé 3097" d="M154.649,56.118a1,1,0,0,0,.345-.811,1.048,1.048,0,0,0-.364-.842,1.434,1.434,0,0,0-.969-.313H152.1v2.255h1.6a1.418,1.418,0,0,0,.945-.29M152.1,53.186h1.467a1.4,1.4,0,0,0,.909-.265.931.931,0,0,0,.329-.765.949.949,0,0,0-.329-.765,1.371,1.371,0,0,0-.909-.275H152.1Zm3.671,1.092a1.852,1.852,0,0,1,.12,2.147,1.932,1.932,0,0,1-.826.7,2.939,2.939,0,0,1-1.259.254h-2.891V50.149h2.756a2.963,2.963,0,0,1,1.27.25,1.873,1.873,0,0,1,.8.67,1.717,1.717,0,0,1,.27.943,1.61,1.61,0,0,1-.332,1.038,1.944,1.944,0,0,1-.894.615,1.588,1.588,0,0,1,.987.613" transform="translate(37.004 12.296)" fill="#11447e"/>
      <path id="Tracé_3098" data-name="Tracé 3098" d="M157.2,56.419h2.443v.958h-3.628V50.148H157.2Z" transform="translate(38.253 12.296)" fill="#11447e"/>
      <rect id="Rectangle_219" data-name="Rectangle 219" width="1.187" height="7.227" transform="translate(198.672 62.445)" fill="#11447e"/>
      <path id="Tracé_3099" data-name="Tracé 3099" d="M161.766,51.862a3.541,3.541,0,0,1,1.34-1.316,3.957,3.957,0,0,1,3.912.093,3.238,3.238,0,0,1,1.3,1.608H166.9a1.918,1.918,0,0,0-.781-.853,2.313,2.313,0,0,0-1.154-.28,2.542,2.542,0,0,0-1.28.321,2.258,2.258,0,0,0-.877.926,3.262,3.262,0,0,0,0,2.808,2.3,2.3,0,0,0,.877.931,2.507,2.507,0,0,0,1.28.326,2.313,2.313,0,0,0,1.154-.28,1.921,1.921,0,0,0,.781-.854h1.425a3.213,3.213,0,0,1-1.3,1.6,3.822,3.822,0,0,1-2.056.56,3.737,3.737,0,0,1-1.86-.473,3.527,3.527,0,0,1-1.336-1.315,3.92,3.92,0,0,1,0-3.807" transform="translate(39.543 12.278)" fill="#11447e"/>
      <path id="Tracé_3100" data-name="Tracé 3100" d="M168.984,57.213a2.15,2.15,0,0,1-.915-.723,1.835,1.835,0,0,1-.334-1.091h1.27a1.151,1.151,0,0,0,.369.77,1.311,1.311,0,0,0,.92.3,1.42,1.42,0,0,0,.956-.3.965.965,0,0,0,.344-.765.831.831,0,0,0-.214-.593,1.394,1.394,0,0,0-.53-.354,7.927,7.927,0,0,0-.878-.27,8.142,8.142,0,0,1-1.149-.38,1.893,1.893,0,0,1-.753-.6,1.716,1.716,0,0,1-.313-1.081,1.915,1.915,0,0,1,.313-1.092,2.01,2.01,0,0,1,.873-.717,3.2,3.2,0,0,1,1.3-.249,2.71,2.71,0,0,1,1.721.524,1.946,1.946,0,0,1,.745,1.442H171.4a.951.951,0,0,0-.374-.676,1.379,1.379,0,0,0-.905-.281,1.291,1.291,0,0,0-.833.26.909.909,0,0,0-.321.748.76.76,0,0,0,.2.545,1.391,1.391,0,0,0,.516.337,7.245,7.245,0,0,0,.852.271,8.984,8.984,0,0,1,1.17.395,1.962,1.962,0,0,1,.77.608,1.76,1.76,0,0,1,.318,1.1,1.971,1.971,0,0,1-.3,1.04,2.146,2.146,0,0,1-.862.784,2.844,2.844,0,0,1-1.337.3,3.243,3.243,0,0,1-1.31-.255" transform="translate(41.127 12.278)" fill="#11447e"/>
    </g>
  </g>
</svg>
