<svg xmlns="http://www.w3.org/2000/svg" xmlns:xlink="http://www.w3.org/1999/xlink" width="104" height="88.8" viewBox="0 0 104 88.8">
  <defs>
    <clipPath id="clip-path">
      <path id="Tracé_11258" data-name="Tracé 11258" d="M0,41.659H104v-88.8H0Z" transform="translate(0 47.141)" fill="#fff"/>
    </clipPath>
  </defs>
  <g id="Groupe_759" data-name="Groupe 759" transform="translate(0 47.141)">
    <g id="Groupe_717" data-name="Groupe 717" transform="translate(66.636 0.158)">
      <path id="Tracé_11255" data-name="Tracé 11255" d="M0,0H2.957V.625H.706v1.8H2.829v.625H.706V5.723H0Z" fill="#fff"/>
    </g>
    <g id="Groupe_718" data-name="Groupe 718" transform="translate(70.203 -1.292)">
      <path id="Tracé_11256" data-name="Tracé 11256" d="M.774,0H1.56L.7,1.136H.213ZM-.876,1.45H2.081v.625H-.17v1.8H1.953V4.5H-.17V6.548H2.179v.625H-.876Z" transform="translate(0.876)" fill="#fff"/>
    </g>
    <g id="Groupe_720" data-name="Groupe 720" transform="translate(0 -47.141)" clip-path="url(#clip-path)">
      <g id="Groupe_719" data-name="Groupe 719" transform="translate(73.992 47.299)">
        <path id="Tracé_11257" data-name="Tracé 11257" d="M.331,2.414h.737c1.219,0,1.354-1.253,1.354-2.276,0-1.108-.073-2.294-1.354-2.294H.331ZM-.375-2.732H1.156c1.78,0,2,1.281,2,2.863,0,1.441-.36,2.859-1.931,2.859h-1.6Z" transform="translate(0.375 2.732)" fill="#fff"/>
      </g>
    </g>
    <g id="Groupe_721" data-name="Groupe 721" transform="translate(78.387 -1.292)">
      <path id="Tracé_11259" data-name="Tracé 11259" d="M.774,0H1.56L.7,1.136H.213ZM-.876,1.45H2.081v.625H-.17v1.8H1.953V4.5H-.17V6.548H2.176v.625H-.876Z" transform="translate(0.876)" fill="#fff"/>
    </g>
    <g id="Groupe_723" data-name="Groupe 723" transform="translate(0 -47.141)" clip-path="url(#clip-path)">
      <g id="Groupe_722" data-name="Groupe 722" transform="translate(82.103 47.298)">
        <path id="Tracé_11260" data-name="Tracé 11260" d="M.331,1.219h.7c.416,0,1.179,0,1.179-1.108,0-.558-.377-.912-1.034-.912H.331Zm-.706-2.6H1.479A1.339,1.339,0,0,1,2.944.056,1.325,1.325,0,0,1,2.063,1.5v.019a.94.94,0,0,1,.81.953l.049.978c.03.635.136.795.3.9h-.85a1.756,1.756,0,0,1-.19-.823L2.136,2.63c-.057-.787-.488-.834-.85-.834H.331V4.344H-.375Z" transform="translate(0.375 1.379)" fill="#fff"/>
      </g>
    </g>
    <g id="Groupe_724" data-name="Groupe 724" transform="translate(85.744 0.158)">
      <path id="Tracé_11262" data-name="Tracé 11262" d="M.613,1.677H2.152L1.423-1.088H1.408ZM.958-1.9H1.9L3.443,3.825H2.7L2.3,2.254H.468L.044,3.825H-.694Z" transform="translate(0.694 1.898)" fill="#fff"/>
    </g>
    <g id="Groupe_725" data-name="Groupe 725" transform="translate(89.448 0.158)">
      <path id="Tracé_11263" data-name="Tracé 11263" d="M1,2.685H.3v-5.1H-1.137v-.625H2.446v.625H1Z" transform="translate(1.137 3.038)" fill="#fff"/>
    </g>
    <path id="Tracé_11264" data-name="Tracé 11264" d="M49.672-16.309H50.4v-5.723h-.725Z" transform="translate(43.896 22.189)" fill="#fff"/>
    <g id="Groupe_727" data-name="Groupe 727" transform="translate(0 -47.141)" clip-path="url(#clip-path)">
      <g id="Groupe_726" data-name="Groupe 726" transform="translate(95.132 47.187)">
        <path id="Tracé_11265" data-name="Tracé 11265" d="M.346,1.4c0,1.32.13,2.394,1.106,2.394S2.559,2.716,2.559,1.4,2.431-1,1.451-1,.346.073.346,1.4m2.95,0c0,1.441-.266,2.973-1.844,2.973S-.391,2.836-.391,1.4s.264-2.974,1.842-2.974S3.3-.049,3.3,1.4" transform="translate(0.391 1.579)" fill="#fff"/>
      </g>
    </g>
    <g id="Groupe_728" data-name="Groupe 728" transform="translate(99.677 0.158)">
      <path id="Tracé_11267" data-name="Tracé 11267" d="M0,0H.914L2.8,4.779H2.82V0h.706V5.723H2.558L.721,1.089H.706V5.723H0Z" fill="#fff"/>
    </g>
    <g id="Groupe_729" data-name="Groupe 729" transform="translate(66.636 8.236)">
      <path id="Tracé_11268" data-name="Tracé 11268" d="M0,0H.914L2.8,4.779H2.82V0h.706V5.723H2.558L.721,1.091H.706V5.723H0Z" fill="#fff"/>
    </g>
    <g id="Groupe_730" data-name="Groupe 730" transform="translate(71.011 8.237)">
      <path id="Tracé_11269" data-name="Tracé 11269" d="M.613,1.676H2.152L1.421-1.089H1.4ZM.958-1.9H1.9L3.443,3.826H2.7L2.3,2.253H.468L.044,3.826H-.694Z" transform="translate(0.694 1.897)" fill="#fff"/>
    </g>
    <g id="Groupe_731" data-name="Groupe 731" transform="translate(75.156 8.238)">
      <path id="Tracé_11270" data-name="Tracé 11270" d="M1,2.684H.3v-5.1H-1.136v-.624H2.447v.624H1Z" transform="translate(1.136 3.037)" fill="#fff"/>
    </g>
    <path id="Tracé_11271" data-name="Tracé 11271" d="M42.319-12.02h.725v-5.723h-.725Z" transform="translate(37.398 25.979)" fill="#fff"/>
    <g id="Groupe_733" data-name="Groupe 733" transform="translate(0 -47.141)" clip-path="url(#clip-path)">
      <g id="Groupe_732" data-name="Groupe 732" transform="translate(81.722 55.267)">
        <path id="Tracé_11272" data-name="Tracé 11272" d="M.346,1.395c0,1.32.126,2.4,1.108,2.4s1.106-1.076,1.106-2.4S2.431-1,1.453-1,.346.072.346,1.395m2.95,0c0,1.441-.266,2.973-1.842,2.973S-.391,2.836-.391,1.395s.262-2.973,1.844-2.973S3.3-.048,3.3,1.395" transform="translate(0.391 1.578)" fill="#fff"/>
      </g>
    </g>
    <g id="Groupe_734" data-name="Groupe 734" transform="translate(86.707 8.236)">
      <path id="Tracé_11274" data-name="Tracé 11274" d="M0,0H.914L2.8,4.779H2.82V0h.706V5.723H2.558L.721,1.091H.706V5.723H0Z" fill="#fff"/>
    </g>
    <g id="Groupe_735" data-name="Groupe 735" transform="translate(91.084 8.237)">
      <path id="Tracé_11275" data-name="Tracé 11275" d="M.612,1.676H2.151L1.422-1.089H1.407ZM.957-1.9H1.9L3.442,3.826H2.705L2.3,2.253H.467L.044,3.826H-.693Z" transform="translate(0.693 1.897)" fill="#fff"/>
    </g>
    <g id="Groupe_736" data-name="Groupe 736" transform="translate(96.069 8.236)">
      <path id="Tracé_11276" data-name="Tracé 11276" d="M0,0H.706V5.1H3.029v.625H0Z" fill="#fff"/>
    </g>
    <g id="Groupe_737" data-name="Groupe 737" transform="translate(100.077 8.236)">
      <path id="Tracé_11277" data-name="Tracé 11277" d="M0,0H2.957V.624H.7v1.8H2.831v.625H.7V5.1H3.055v.625H0Z" fill="#fff"/>
    </g>
    <g id="Groupe_738" data-name="Groupe 738" transform="translate(0 -18.915)">
      <path id="Tracé_11278" data-name="Tracé 11278" d="M0,0V15.111H6.889V12.082h-2.6V0Z" fill="#fff"/>
    </g>
    <g id="Groupe_739" data-name="Groupe 739" transform="translate(7.926 -18.916)">
      <path id="Tracé_11279" data-name="Tracé 11279" d="M0,0H7.141V3.029H4.293V5.881H6.958V8.765H4.293v3.317H7.431v3.029H0Z" fill="#fff"/>
    </g>
    <g id="Groupe_741" data-name="Groupe 741" transform="translate(0 -47.141)" clip-path="url(#clip-path)">
      <g id="Groupe_740" data-name="Groupe 740" transform="translate(16.223 27.901)">
        <path id="Tracé_11280" data-name="Tracé 11280" d="M4.433,2.3H.466V1.169a2.024,2.024,0,0,0-.154-1,.607.607,0,0,0-.52-.213.684.684,0,0,0-.6.286,1.514,1.514,0,0,0-.2.87A2.208,2.208,0,0,0-.781,2.243a3.305,3.305,0,0,0,1.223.929A12.422,12.422,0,0,1,4.048,5.745a5.476,5.476,0,0,1,.744,3.223,5.226,5.226,0,0,1-.414,2.385,3.156,3.156,0,0,1-1.6,1.287,6.857,6.857,0,0,1-2.76.516,6.644,6.644,0,0,1-2.95-.6,3.073,3.073,0,0,1-1.6-1.528,7.156,7.156,0,0,1-.379-2.622V7.423H-.942v1.84a2.158,2.158,0,0,0,.175,1.089.7.7,0,0,0,.612.243A.74.74,0,0,0,.5,10.286a1.576,1.576,0,0,0,.215-.91,2.618,2.618,0,0,0-.4-1.746A13.036,13.036,0,0,0-1.689,6.255,18.68,18.68,0,0,1-3.81,4.846a3.326,3.326,0,0,1-.865-1.217,4.926,4.926,0,0,1-.341-1.982A5.039,5.039,0,0,1-4.532-.888,3.2,3.2,0,0,1-2.968-2.146,6.68,6.68,0,0,1-.359-2.6a7.3,7.3,0,0,1,2.85.5A2.939,2.939,0,0,1,4.052-.854,6.154,6.154,0,0,1,4.433,1.7Z" transform="translate(5.016 2.604)" fill="#fff"/>
      </g>
    </g>
    <g id="Groupe_742" data-name="Groupe 742" transform="translate(30.273 -18.916)">
      <path id="Tracé_11282" data-name="Tracé 11282" d="M4.4,0V3.029H1.837V15.111H-2.454V3.029H-4.978V0Z" transform="translate(4.978)" fill="#fff"/>
    </g>
    <g id="Groupe_752" data-name="Groupe 752" transform="translate(0 -47.141)" clip-path="url(#clip-path)">
      <g id="Groupe_743" data-name="Groupe 743" transform="translate(40.634 28.225)">
        <path id="Tracé_11283" data-name="Tracé 11283" d="M2.014,1.219V4.574a2,2,0,0,0,1.008-.183c.192-.122.29-.512.29-1.177V2.385a1.2,1.2,0,0,0-.279-.944,1.717,1.717,0,0,0-1.019-.222m-4.293-2.6H.752a25.208,25.208,0,0,1,4.1.215A2.846,2.846,0,0,1,6.6-.07a4.656,4.656,0,0,1,.676,2.822A4.087,4.087,0,0,1,6.8,5.12a2.586,2.586,0,0,1-1.882.721,3.361,3.361,0,0,1,1.709.776,2.255,2.255,0,0,1,.546.893,13.075,13.075,0,0,1,.107,2.238v3.984H3.312V8.706a3.181,3.181,0,0,0-.209-1.5Q2.9,6.918,2.014,6.917v6.815H-2.279Z" transform="translate(2.279 1.379)" fill="#fff"/>
      </g>
      <g id="Groupe_744" data-name="Groupe 744" transform="translate(50.884 28.226)">
        <path id="Tracé_11284" data-name="Tracé 11284" d="M2.873,4.569q-.305-2.6-.661-6.4-.636,4.368-.827,6.4ZM5.105-5.17,7.586,9.941H3.214L2.982,7.236H1.415L1.176,9.941H-3.251L-1.079-5.17Z" transform="translate(3.251 5.17)" fill="#fff"/>
      </g>
      <g id="Groupe_745" data-name="Groupe 745" transform="translate(61.006 28.225)">
        <path id="Tracé_11285" data-name="Tracé 11285" d="M5.228,0,3.054,15.111H-3.418L-5.916,0h4.508Q-.626,6.236-.272,10.592.064,6.19.457,2.8L.72,0Z" transform="translate(5.916)" fill="#fff"/>
      </g>
      <g id="Groupe_746" data-name="Groupe 746" transform="translate(71.637 28.226)">
        <path id="Tracé_11286" data-name="Tracé 11286" d="M2.874,4.569q-.305-2.6-.661-6.4-.636,4.368-.827,6.4ZM5.106-5.17,7.585,9.941H3.215L2.983,7.236H1.414L1.177,9.941H-3.252L-1.078-5.17Z" transform="translate(3.252 5.17)" fill="#fff"/>
      </g>
      <g id="Groupe_747" data-name="Groupe 747" transform="translate(83.12 28.225)">
        <path id="Tracé_11287" data-name="Tracé 11287" d="M4.6,0V10.1a16.129,16.129,0,0,1-.122,2.415,3.149,3.149,0,0,1-.723,1.43,3.763,3.763,0,0,1-1.586,1.115,6.414,6.414,0,0,1-2.317.381,7.034,7.034,0,0,1-2.607-.448,3.87,3.87,0,0,1-1.69-1.17A3.085,3.085,0,0,1-5.106,12.3q-.1-.8-.1-3.362V0H-.915V11.342A4.135,4.135,0,0,0-.8,12.6a.461.461,0,0,0,.471.273.5.5,0,0,0,.524-.3,5.281,5.281,0,0,0,.115-1.434V0Z" transform="translate(5.208)" fill="#fff"/>
      </g>
      <g id="Groupe_748" data-name="Groupe 748" transform="translate(93.686 28.225)">
        <path id="Tracé_11288" data-name="Tracé 11288" d="M4.483,0,2.969,6.683,5.24,15.111H1.275a54.357,54.357,0,0,1-1.3-5.525c-.126.966-.288,1.985-.478,3.059l-.386,2.466H-5.073l1.588-8.428L-5.073,0H-.927q.136.607.45,2.066c.16.748.313,1.447.452,2.089L.876,0Z" transform="translate(5.073)" fill="#fff"/>
      </g>
      <g id="Groupe_749" data-name="Groupe 749" transform="translate(-0.001 45.993)">
        <path id="Tracé_11289" data-name="Tracé 11289" d="M2.013,1.218V5.066c.124.008.228.011.318.011a1.047,1.047,0,0,0,.821-.266A1.79,1.79,0,0,0,3.384,3.7V2.461a1.38,1.38,0,0,0-.266-1.01,1.806,1.806,0,0,0-1.106-.234m-4.291-2.6H2.039a11.155,11.155,0,0,1,2.692.249A3.035,3.035,0,0,1,6.146-.4,2.464,2.464,0,0,1,6.786.756a9.6,9.6,0,0,1,.168,2.1V4.177A5.065,5.065,0,0,1,6.628,6.3,2.179,2.179,0,0,1,5.434,7.319a6.116,6.116,0,0,1-2.272.356H2.013v6.056H-2.278Z" transform="translate(2.278 1.378)" fill="#fff"/>
      </g>
      <g id="Groupe_750" data-name="Groupe 750" transform="translate(9.865 45.993)">
        <path id="Tracé_11290" data-name="Tracé 11290" d="M4.6,0V10.095a15.9,15.9,0,0,1-.122,2.417,3.134,3.134,0,0,1-.723,1.428,3.76,3.76,0,0,1-1.584,1.117,6.471,6.471,0,0,1-2.317.379,7.076,7.076,0,0,1-2.609-.446,3.91,3.91,0,0,1-1.69-1.172A3.083,3.083,0,0,1-5.1,12.3q-.1-.8-.1-3.364V0H-.915V11.34A4.233,4.233,0,0,0-.8,12.6a.461.461,0,0,0,.471.273.5.5,0,0,0,.524-.305,5.243,5.243,0,0,0,.117-1.434V0Z" transform="translate(5.208)" fill="#fff"/>
      </g>
      <g id="Groupe_751" data-name="Groupe 751" transform="translate(20.484 45.99)">
        <path id="Tracé_11291" data-name="Tracé 11291" d="M2.014,3.893V8.11A1.862,1.862,0,0,0,3.14,7.847,1.74,1.74,0,0,0,3.382,6.7V5.3q0-.975-.217-1.175a2.079,2.079,0,0,0-1.151-.234m0-5.7V1.548c.177-.008.316-.009.416-.009.411,0,.671-.094.784-.284A4.4,4.4,0,0,0,3.382-.378a2.474,2.474,0,0,0-.136-.983.662.662,0,0,0-.364-.36,3.331,3.331,0,0,0-.868-.085m-4.293-2.6H1.978a12.278,12.278,0,0,1,3.057.29A3.054,3.054,0,0,1,6.712-2.947,4.908,4.908,0,0,1,7.351-.11,2.875,2.875,0,0,1,6.9,1.734a3.277,3.277,0,0,1-1.78.8A3.237,3.237,0,0,1,7.143,3.563a3.684,3.684,0,0,1,.531,2.195V7.165A5.2,5.2,0,0,1,7.3,9.429a1.992,1.992,0,0,1-1.215,1.008,13.4,13.4,0,0,1-3.413.271H-2.279Z" transform="translate(2.279 4.405)" fill="#fff"/>
      </g>
    </g>
    <g id="Groupe_753" data-name="Groupe 753" transform="translate(30.978 -1.148)">
      <path id="Tracé_11293" data-name="Tracé 11293" d="M2.014,0V12.082h2.6v3.029H-2.279V0Z" transform="translate(2.279)" fill="#fff"/>
    </g>
    <path id="Tracé_11294" data-name="Tracé 11294" d="M24.668-7.615H20.377V-22.726h4.291Z" transform="translate(18.007 21.576)" fill="#fff"/>
    <g id="Groupe_758" data-name="Groupe 758" transform="translate(0 -47.141)" clip-path="url(#clip-path)">
      <g id="Groupe_754" data-name="Groupe 754" transform="translate(43.476 45.668)">
        <path id="Tracé_11295" data-name="Tracé 11295" d="M4.754,3.249H.461V.608A4.379,4.379,0,0,0,.326-.83a.6.6,0,0,0-.6-.286c-.352,0-.575.117-.669.347a4.778,4.778,0,0,0-.145,1.5V7.754A4.431,4.431,0,0,0-.946,9.188a.614.614,0,0,0,.639.335.61.61,0,0,0,.624-.335A5.1,5.1,0,0,0,.461,7.606V5.7H4.754v.591a10.73,10.73,0,0,1-.362,3.334,3.5,3.5,0,0,1-1.6,1.718,5.861,5.861,0,0,1-3.05.738,6.8,6.8,0,0,1-3.106-.624,3.125,3.125,0,0,1-1.62-1.735,10.538,10.538,0,0,1-.4-3.336V1.977A17.659,17.659,0,0,1-5.256-.474a3.284,3.284,0,0,1,.727-1.571,4.04,4.04,0,0,1,1.68-1.194A6.538,6.538,0,0,1-.377-3.676,6.462,6.462,0,0,1,2.748-3a3.354,3.354,0,0,1,1.62,1.68,9.391,9.391,0,0,1,.386,3.133Z" transform="translate(5.38 3.676)" fill="#fff"/>
      </g>
      <g id="Groupe_755" data-name="Groupe 755" transform="translate(54.275 45.667)">
        <path id="Tracé_11296" data-name="Tracé 11296" d="M4.434,2.3H.465V1.169a2.007,2.007,0,0,0-.154-1A.6.6,0,0,0-.21-.042a.683.683,0,0,0-.6.286,1.517,1.517,0,0,0-.2.872A2.2,2.2,0,0,0-.781,2.243a3.324,3.324,0,0,0,1.223.931A12.427,12.427,0,0,1,4.049,5.745,5.481,5.481,0,0,1,4.8,8.97a5.213,5.213,0,0,1-.416,2.383,3.155,3.155,0,0,1-1.6,1.287,6.859,6.859,0,0,1-2.762.518,6.635,6.635,0,0,1-2.948-.6,3.064,3.064,0,0,1-1.6-1.526A7.163,7.163,0,0,1-4.908,8.41V7.425H-.941V9.263a2.153,2.153,0,0,0,.175,1.089.7.7,0,0,0,.612.243A.745.745,0,0,0,.5,10.286a1.58,1.58,0,0,0,.215-.91,2.611,2.611,0,0,0-.4-1.744A12.911,12.911,0,0,0-1.69,6.255,18.712,18.712,0,0,1-3.811,4.844a3.337,3.337,0,0,1-.863-1.215,4.918,4.918,0,0,1-.343-1.982A5.066,5.066,0,0,1-4.531-.888,3.225,3.225,0,0,1-2.968-2.146,6.68,6.68,0,0,1-.359-2.6a7.239,7.239,0,0,1,2.85.5A2.939,2.939,0,0,1,4.053-.852,6.148,6.148,0,0,1,4.434,1.7Z" transform="translate(5.017 2.604)" fill="#fff"/>
      </g>
      <g id="Groupe_756" data-name="Groupe 756" transform="translate(14.095 0)">
        <path id="Tracé_11297" data-name="Tracé 11297" d="M25.962,7.927s3.223,3.7,7.635,4.009H46.632a45,45,0,0,0-76.01,0h1.808A35.92,35.92,0,0,1,.95-2.106,35.854,35.854,0,0,1,25.885,7.938Z" transform="translate(29.378 8.97)" fill="#fff"/>
      </g>
      <g id="Groupe_757" data-name="Groupe 757" transform="translate(14.095 67.897)">
        <path id="Tracé_11298" data-name="Tracé 11298" d="M34.81,0A35.932,35.932,0,0,1,6.289,14.037,35.86,35.86,0,0,1-18.693,3.948h0l-.011-.011c-.254-.247-.5-.5-.755-.748A12.267,12.267,0,0,0-25.783,0H-39.391a44.959,44.959,0,0,0,38,20.9A44.962,44.962,0,0,0,36.619,0Z" transform="translate(39.391)" fill="#fff"/>
      </g>
    </g>
  </g>
</svg>
