<svg xmlns="http://www.w3.org/2000/svg" width="302.985" height="141.875" viewBox="0 0 302.985 141.875">
  <g id="FNTP-LogoSEVE-TP-RVB-blanc" transform="translate(-13.9 -13.7)">
    <path id="Tracé_11300" data-name="Tracé 11300" d="M153.107,40.7s5.117,5.823,12.176,6.353h20.822a71.918,71.918,0,0,0-121.406,0h2.823A57.608,57.608,0,0,1,113.05,24.641c18.528,0,29.469,6.176,39.88,16.058h.176Z" transform="translate(38.843 0)" fill="#fff"/>
    <path id="Tracé_11301" data-name="Tracé 11301" d="M183.106,75.2a57.608,57.608,0,0,1-45.527,22.411c-18.528,0-29.646-6.176-39.88-16.058h0l-1.235-1.235A20.538,20.538,0,0,0,86.4,75.2H64.7a71.543,71.543,0,0,0,60.7,33.351,71.95,71.95,0,0,0,60.7-33.351h-3Z" transform="translate(38.843 47.024)" fill="#fff"/>
    <g id="Groupe_760" data-name="Groupe 760" transform="translate(68.074 56.58)">
      <path id="Tracé_11302" data-name="Tracé 11302" d="M58.188,73.645c-7.411,0-13.411-3.706-13.588-10.764h9c.176,2.647,1.941,3.882,4.412,3.882s4.059-1.235,4.059-3.176c0-6.529-17.47-3-17.293-15.352C44.776,41.706,50.247,38,57.482,38S70.187,41.706,70.54,48.411H61.364c0-2.294-1.765-3.529-4.059-3.529-2.118,0-3.529,1.059-3.529,3.176,0,6,17.293,3.353,17.293,15S66.481,73.822,58.364,73.822" transform="translate(-44.6 -38)" fill="#fff"/>
      <path id="Tracé_11303" data-name="Tracé 11303" d="M83.152,45.006H70.27v7.058H81.564v6.529H70.27v7.764H83.152v6.706H61.8V38.3H83.152Z" transform="translate(-31.449 -37.771)" fill="#fff"/>
      <path id="Tracé_11304" data-name="Tracé 11304" d="M101.093,38.3h9L97.74,73.063H87.152L74.8,38.3h9l8.647,26.293Z" transform="translate(-21.509 -37.771)" fill="#fff"/>
      <path id="Tracé_11305" data-name="Tracé 11305" d="M117.452,45.006H104.57v7.058h11.294v6.529H104.57v7.764h12.882v6.706H96.1V38.3h21.352Z" transform="translate(-5.222 -37.771)" fill="#fff"/>
      <path id="Tracé_11306" data-name="Tracé 11306" d="M122.8,38.3h27v6.706h-9.176V73.063h-8.47V45.006H122.8Z" transform="translate(15.193 -37.771)" fill="#fff"/>
      <path id="Tracé_11307" data-name="Tracé 11307" d="M152.858,53.829c3.353,0,4.764-1.765,4.764-4.412s-1.412-4.412-4.764-4.412H148.27v8.823Zm.706,6.706H148.27V73.063H139.8V38.3h13.764c8.47,0,12.705,4.764,12.705,11.117s-3.882,11.117-12.705,11.117" transform="translate(28.192 -37.771)" fill="#fff"/>
      <rect id="Rectangle_698" data-name="Rectangle 698" width="16.764" height="6.529" transform="translate(119.994 17.117)" fill="#fff"/>
    </g>
    <g id="Groupe_766" data-name="Groupe 766" transform="translate(13.9 98.578)">
      <path id="Tracé_11308" data-name="Tracé 11308" d="M13.9,65.506V75.74h5.647V74.329H15.665V71.152h3.529V69.741H15.665v-3h3.882V65.329H13.9Zm.882-1.941V64.8l3.353-1.588V61.8Z" transform="translate(-13.9 -61.8)" fill="#fff"/>
      <g id="Groupe_761" data-name="Groupe 761" transform="translate(6.706 3.353)">
        <path id="Tracé_11309" data-name="Tracé 11309" d="M18.406,66.347a6.773,6.773,0,0,1,1.941-1.941,7.4,7.4,0,0,1,2.647-.706,5.332,5.332,0,0,1,2.823.882,3.9,3.9,0,0,1,1.765,2.294H25.641c-.176-.529-.706-.882-1.059-1.235a2.622,2.622,0,0,0-1.588-.353,2.318,2.318,0,0,0-1.765.529,4.123,4.123,0,0,0-1.235,1.235,3.557,3.557,0,0,0-.529,1.941,2.526,2.526,0,0,0,.529,1.941,4.757,4.757,0,0,0,1.235,1.412,2.981,2.981,0,0,0,1.765.529c.706,0,1.235,0,1.588-.353a2.372,2.372,0,0,0,1.059-1.235h1.941a4.735,4.735,0,0,1-1.765,2.294,4.811,4.811,0,0,1-2.823.706,4.6,4.6,0,0,1-2.647-.706,5.126,5.126,0,0,1-1.941-1.941,4.98,4.98,0,0,1-.706-2.647,4.6,4.6,0,0,1,.706-2.647" transform="translate(-17.7 -63.7)" fill="#fff"/>
        <path id="Tracé_11310" data-name="Tracé 11310" d="M31.058,72.347a3.269,3.269,0,0,0,1.235-1.412,4.022,4.022,0,0,0,.529-1.941,2.526,2.526,0,0,0-.529-1.941,2.78,2.78,0,0,0-1.235-1.235,2.981,2.981,0,0,0-1.765-.529,2.133,2.133,0,0,0-1.765.529,4.123,4.123,0,0,0-1.235,1.235,3.557,3.557,0,0,0-.529,1.941,2.526,2.526,0,0,0,.529,1.941,4.757,4.757,0,0,0,1.235,1.412,2.981,2.981,0,0,0,1.765.529,2.133,2.133,0,0,0,1.765-.529m-4.412,1.235a4.139,4.139,0,0,1-1.941-1.941,5.316,5.316,0,0,1,0-5.294,6.773,6.773,0,0,1,1.941-1.941,7.4,7.4,0,0,1,2.647-.706,4.98,4.98,0,0,1,2.647.706,4.139,4.139,0,0,1,1.941,1.941,4.98,4.98,0,0,1,.706,2.647,4.6,4.6,0,0,1-.706,2.647,6.772,6.772,0,0,1-1.941,1.941,7.4,7.4,0,0,1-2.647.706,4.98,4.98,0,0,1-2.647-.706" transform="translate(-12.883 -63.7)" fill="#fff"/>
      </g>
      <rect id="Rectangle_699" data-name="Rectangle 699" width="6" height="1.412" transform="translate(29.822 7.941)" fill="#fff"/>
      <g id="Groupe_762" data-name="Groupe 762" transform="translate(37.41 3.353)">
        <path id="Tracé_11311" data-name="Tracé 11311" d="M35.806,66.347a6.772,6.772,0,0,1,1.941-1.941,7.4,7.4,0,0,1,2.647-.706,6.5,6.5,0,0,1,3,.882,3.9,3.9,0,0,1,1.765,2.294H43.217a7.674,7.674,0,0,0-1.059-1.235,2.622,2.622,0,0,0-1.588-.353,2.318,2.318,0,0,0-1.765.529,4.123,4.123,0,0,0-1.235,1.235,3.557,3.557,0,0,0-.529,1.941,2.526,2.526,0,0,0,.529,1.941,4.757,4.757,0,0,0,1.235,1.412,2.981,2.981,0,0,0,1.765.529c.706,0,1.235,0,1.588-.353a2.372,2.372,0,0,0,1.059-1.235h1.941a4.735,4.735,0,0,1-1.765,2.294,5.049,5.049,0,0,1-3,.706,4.253,4.253,0,0,1-2.647-.706,4.139,4.139,0,0,1-1.941-1.941,4.98,4.98,0,0,1-.706-2.647,4.6,4.6,0,0,1,.706-2.647" transform="translate(-35.1 -63.7)" fill="#fff"/>
        <path id="Tracé_11312" data-name="Tracé 11312" d="M48.458,72.347a3.269,3.269,0,0,0,1.235-1.412,3.557,3.557,0,0,0,.529-1.941,2.526,2.526,0,0,0-.529-1.941,2.78,2.78,0,0,0-1.235-1.235,5.179,5.179,0,0,0-1.765-.529,2.133,2.133,0,0,0-1.765.529,8.153,8.153,0,0,0-1.235,1.235,3.557,3.557,0,0,0-.529,1.941,2.526,2.526,0,0,0,.529,1.941,4.757,4.757,0,0,0,1.235,1.412,2.981,2.981,0,0,0,1.765.529,2.133,2.133,0,0,0,1.765-.529m-4.412,1.235a4.139,4.139,0,0,1-1.941-1.941,5.316,5.316,0,0,1,0-5.294,6.773,6.773,0,0,1,1.941-1.941,7.4,7.4,0,0,1,2.647-.706,4.98,4.98,0,0,1,2.647.706,4.139,4.139,0,0,1,1.941,1.941,4.98,4.98,0,0,1,.706,2.647,4.6,4.6,0,0,1-.706,2.647,6.773,6.773,0,0,1-1.941,1.941,5.316,5.316,0,0,1-5.294,0" transform="translate(-30.283 -63.7)" fill="#fff"/>
      </g>
      <path id="Tracé_11313" data-name="Tracé 11313" d="M58.864,63.9V74.135H57.276V67.076L54.1,74.135H52.864l-3-7.058v7.058H48.1V63.9h1.765l3.706,7.941L57.1,63.9Z" transform="translate(12.25 -60.194)" fill="#fff"/>
      <path id="Tracé_11314" data-name="Tracé 11314" d="M60.241,68.288a1.6,1.6,0,0,0,.529-1.235c0-1.059-.706-1.588-1.941-1.588H57.065v3.353h1.765c.706,0,1.059,0,1.412-.353m1.941,0a1.866,1.866,0,0,1-1.235,1.059,3.821,3.821,0,0,1-2.118.353H57.065v4.059H55.3V63.7h3.529a3.49,3.49,0,0,1,1.941.353,7.676,7.676,0,0,1,1.235,1.059,2.622,2.622,0,0,1,.353,1.588,1.9,1.9,0,0,1-.353,1.412" transform="translate(17.755 -60.347)" fill="#fff"/>
      <path id="Tracé_11315" data-name="Tracé 11315" d="M65.976,70.606l-1.588-4.764-1.765,4.764Zm.529,1.412H62.27l-.706,2.118H59.8L63.506,63.9h1.941l3.706,10.235H67.388l-.706-2.118Z" transform="translate(21.196 -60.194)" fill="#fff"/>
      <path id="Tracé_11316" data-name="Tracé 11316" d="M67.312,68.664h1.941c.706,0,1.059,0,1.412-.529a1.6,1.6,0,0,0,.529-1.235c0-.529,0-.882-.529-1.235a2,2,0,0,0-1.412-.529H67.312v3.353h0Zm3.706,5.47-2.294-4.059H67.488v4.059H65.9V63.9h3.529a3.49,3.49,0,0,1,1.941.353,7.675,7.675,0,0,1,1.235,1.059,2.622,2.622,0,0,1,.353,1.588,3.4,3.4,0,0,1-.529,1.765,3,3,0,0,1-1.765,1.059l2.47,4.235H71.194Z" transform="translate(25.86 -60.194)" fill="#fff"/>
      <path id="Tracé_11317" data-name="Tracé 11317" d="M76.776,70.606l-1.588-4.764L73.6,70.606h3.176Zm.529,1.412H73.07l-.706,2.118H70.6L74.306,63.9h1.941l3.706,10.235H78.188l-.706-2.118Z" transform="translate(29.454 -60.194)" fill="#fff"/>
      <path id="Tracé_11318" data-name="Tracé 11318" d="M83.435,63.9v1.412H80.612v8.823H79.023V65.312H76.2V63.9Z" transform="translate(33.736 -60.194)" fill="#fff"/>
      <path id="Tracé_11319" data-name="Tracé 11319" d="M82.688,65.135v3h3.529v1.412H82.688v3.176h4.059v1.412H81.1V63.9h5.647v1.235Z" transform="translate(37.482 -60.194)" fill="#fff"/>
      <g id="Groupe_763" data-name="Groupe 763" transform="translate(125.994 3.529)">
        <path id="Tracé_11320" data-name="Tracé 11320" d="M86.888,63.9v6.529a1.943,1.943,0,0,0,2.294,2.294,2.981,2.981,0,0,0,1.765-.529c.529-.353.529-1.059.529-1.765V63.9h1.588v6.529a2.75,2.75,0,0,1-.529,2.118,3.139,3.139,0,0,1-1.412,1.235,6.344,6.344,0,0,1-1.941.353,3.49,3.49,0,0,1-1.941-.353,4.757,4.757,0,0,1-1.412-1.235,3.763,3.763,0,0,1-.529-2.118V63.9h1.588Z" transform="translate(-85.3 -63.724)" fill="#fff"/>
        <path id="Tracé_11321" data-name="Tracé 11321" d="M92.412,68.664h1.941c.706,0,1.059,0,1.412-.529a1.6,1.6,0,0,0,.529-1.235c0-.529,0-.882-.529-1.235a2,2,0,0,0-1.412-.529H92.412v3.353h0Zm3.706,5.47-2.294-4.059H92.588v4.059H91V63.9h3.529a3.49,3.49,0,0,1,1.941.353,7.675,7.675,0,0,1,1.235,1.059,2.622,2.622,0,0,1,.353,1.588,3.4,3.4,0,0,1-.529,1.765,3,3,0,0,1-1.765,1.059l2.47,4.235H96.294Z" transform="translate(-80.942 -63.724)" fill="#fff"/>
        <path id="Tracé_11322" data-name="Tracé 11322" d="M104,71.741a3.645,3.645,0,0,0,.882-2.823A4.49,4.49,0,0,0,104,66.094a3.726,3.726,0,0,0-2.823-1.059H99.588v7.411h1.588A3.726,3.726,0,0,0,104,71.388m.176-6.882a4.694,4.694,0,0,1,1.941,1.765,6.649,6.649,0,0,1,.706,2.823,4.253,4.253,0,0,1-.706,2.647,3.825,3.825,0,0,1-1.941,1.765,7.315,7.315,0,0,1-2.823.529H98V63.8h3.353a4.811,4.811,0,0,1,2.823.706" transform="translate(-75.589 -63.8)" fill="#fff"/>
      </g>
      <path id="Tracé_11323" data-name="Tracé 11323" d="M105.465,65.135v3h3.529v1.412h-3.529v3.176h3.882v1.412H103.7V63.9h5.647v1.235Z" transform="translate(54.763 -60.194)" fill="#fff"/>
      <path id="Tracé_11324" data-name="Tracé 11324" d="M109.565,74.011a1.866,1.866,0,0,1-1.235-1.059,2.157,2.157,0,0,1-.529-1.588h1.765a1.258,1.258,0,0,0,.529,1.059,2.55,2.55,0,0,0,1.235.353,1.9,1.9,0,0,0,1.412-.353,1.525,1.525,0,0,0,.529-1.059.971.971,0,0,0-.353-.882c-.176-.176-.529-.353-.706-.529a4.489,4.489,0,0,1-1.235-.353,3.349,3.349,0,0,1-1.588-.529,4.678,4.678,0,0,1-1.059-.882c-.353-.353-.353-.882-.353-1.588a2.372,2.372,0,0,1,.353-1.588,3.592,3.592,0,0,1,1.235-1.059,6.269,6.269,0,0,1,1.765-.353,3.734,3.734,0,0,1,2.47.706,2.515,2.515,0,0,1,1.059,2.118h-1.941a.97.97,0,0,0-.529-.882,2.55,2.55,0,0,0-1.235-.353,1.489,1.489,0,0,0-1.235.353,1.258,1.258,0,0,0-.529,1.059c0,.529,0,.529.353.706a2.436,2.436,0,0,0,.706.529,4.489,4.489,0,0,1,1.235.353,8.2,8.2,0,0,1,1.588.529,4.679,4.679,0,0,1,1.059.882,2.157,2.157,0,0,1,.529,1.588c0,.706,0,1.059-.353,1.412a2.372,2.372,0,0,1-1.235,1.059,3.49,3.49,0,0,1-1.941.353,3.8,3.8,0,0,1-1.941-.353" transform="translate(57.898 -60.424)" fill="#fff"/>
      <path id="Tracé_11325" data-name="Tracé 11325" d="M121.735,63.9v1.412h-2.823v8.823h-1.588V65.312H114.5V63.9Z" transform="translate(63.02 -60.194)" fill="#fff"/>
      <path id="Tracé_11326" data-name="Tracé 11326" d="M120.912,68.664h1.941c.706,0,1.059,0,1.412-.529a1.6,1.6,0,0,0,.529-1.235c0-.529,0-.882-.529-1.235a2,2,0,0,0-1.412-.529h-1.941v3.353h0Zm3.706,5.47-2.294-4.059h-1.235v4.059H119.5V63.9h3.529a3.49,3.49,0,0,1,1.941.353,7.675,7.675,0,0,1,1.235,1.059,2.622,2.622,0,0,1,.353,1.588,3.4,3.4,0,0,1-.529,1.765,3,3,0,0,1-1.765,1.059l2.47,4.235h-1.941Z" transform="translate(66.844 -60.194)" fill="#fff"/>
      <path id="Tracé_11327" data-name="Tracé 11327" d="M130.376,70.606l-1.588-4.764L127.2,70.606h3.176Zm.529,1.412H126.67l-.706,2.118H124.2L127.906,63.9h1.941l3.706,10.235h-1.765l-.706-2.118Z" transform="translate(70.437 -60.194)" fill="#fff"/>
      <path id="Tracé_11328" data-name="Tracé 11328" d="M139.229,63.9l-3.706,10.235h-1.941L129.7,63.9h1.765l3,8.47,3-8.47Z" transform="translate(74.643 -60.194)" fill="#fff"/>
      <path id="Tracé_11329" data-name="Tracé 11329" d="M141.676,70.606l-1.588-4.764L138.5,70.606h3.176Zm.529,1.412H137.97l-.706,2.118H135.5L139.206,63.9h1.941l3.706,10.235h-1.765l-.706-2.118h-.177Z" transform="translate(79.077 -60.194)" fill="#fff"/>
      <path id="Tracé_11330" data-name="Tracé 11330" d="M142.935,63.9v6.529a2.046,2.046,0,0,0,.706,1.765,2.635,2.635,0,0,0,1.765.529,2.981,2.981,0,0,0,1.765-.529,2.046,2.046,0,0,0,.706-1.765V63.9h1.588v6.529a3.763,3.763,0,0,1-.529,2.118,3.139,3.139,0,0,1-1.412,1.235,6.344,6.344,0,0,1-1.941.353,3.49,3.49,0,0,1-1.941-.353,4.757,4.757,0,0,1-1.412-1.235,3.763,3.763,0,0,1-.529-2.118V63.9h1.235Z" transform="translate(83.818 -60.194)" fill="#fff"/>
      <path id="Tracé_11331" data-name="Tracé 11331" d="M151.917,69.017l3.176,5.117h-1.941l-2.294-3.706-2.118,3.706H146.8l3.176-5.117L146.8,63.9h1.941l2.294,3.706,2.118-3.706h1.941Z" transform="translate(87.718 -60.194)" fill="#fff"/>
      <g id="Groupe_764" data-name="Groupe 764" transform="translate(247.752 3.353)">
        <path id="Tracé_11332" data-name="Tracé 11332" d="M159.417,68.288a1.6,1.6,0,0,0,.529-1.235c0-1.059-.706-1.588-1.941-1.588h-1.941v3.353h1.941c.706,0,1.059,0,1.412-.353m1.765,0a1.866,1.866,0,0,1-1.235,1.059,3.821,3.821,0,0,1-2.118.353h-1.941v4.059H154.3V63.7h3.529a3.49,3.49,0,0,1,1.941.353,7.675,7.675,0,0,1,1.235,1.059,5.152,5.152,0,0,1,.353,1.588,1.9,1.9,0,0,1-.353,1.412" transform="translate(-154.3 -63.7)" fill="#fff"/>
        <path id="Tracé_11333" data-name="Tracé 11333" d="M160.635,63.9v6.529a2.046,2.046,0,0,0,.706,1.765,2.635,2.635,0,0,0,1.765.529,2.981,2.981,0,0,0,1.765-.529,2.046,2.046,0,0,0,.706-1.765V63.9h1.588v6.529a3.763,3.763,0,0,1-.529,2.118,3.139,3.139,0,0,1-1.412,1.235,6.344,6.344,0,0,1-1.941.353,3.49,3.49,0,0,1-1.941-.353,4.757,4.757,0,0,1-1.412-1.235,3.763,3.763,0,0,1-.529-2.118V63.9h1.235Z" transform="translate(-150.4 -63.547)" fill="#fff"/>
        <path id="Tracé_11334" data-name="Tracé 11334" d="M170.094,72.37a1.706,1.706,0,0,0,0-2.47c-.353-.353-.706-.353-1.412-.353h-2.118v3.176h2.294a1.9,1.9,0,0,0,1.412-.353m-3.882-4.235h2.118c.529,0,1.059,0,1.235-.353a1.067,1.067,0,0,0,.529-1.059c0-.529,0-.882-.529-1.059a1.489,1.489,0,0,0-1.235-.353h-2.118v3h0Zm5.294,1.588a2.846,2.846,0,0,1,.529,1.588,1.9,1.9,0,0,1-.353,1.412,3.827,3.827,0,0,1-1.235,1.059,5.221,5.221,0,0,1-1.765.353H164.8V63.9h3.882a2.9,2.9,0,0,1,1.765.353,1.807,1.807,0,0,1,1.059.882,3.324,3.324,0,0,1,.353,1.412,1.463,1.463,0,0,1-.529,1.412c-.529.353-.706.706-1.235.882a1.8,1.8,0,0,1,1.412.882" transform="translate(-146.272 -63.547)" fill="#fff"/>
      </g>
      <path id="Tracé_11335" data-name="Tracé 11335" d="M171.488,72.723h3.529v1.412H169.9V63.9h1.588Z" transform="translate(105.38 -60.194)" fill="#fff"/>
      <rect id="Rectangle_700" data-name="Rectangle 700" width="1.588" height="10.235" transform="translate(281.456 3.706)" fill="#fff"/>
      <g id="Groupe_765" data-name="Groupe 765" transform="translate(284.456 3.176)">
        <path id="Tracé_11336" data-name="Tracé 11336" d="M175.806,66.347a6.772,6.772,0,0,1,1.941-1.941,5.846,5.846,0,0,1,2.647-.706,4.882,4.882,0,0,1,2.823.882,5.029,5.029,0,0,1,1.941,2.294h-1.941c-.176-.529-.706-.882-1.059-1.235a2.622,2.622,0,0,0-1.588-.353,2.319,2.319,0,0,0-1.765.529,4.123,4.123,0,0,0-1.235,1.235,3.557,3.557,0,0,0-.529,1.941,2.526,2.526,0,0,0,.529,1.941,4.757,4.757,0,0,0,1.235,1.412,2.981,2.981,0,0,0,1.765.529c.706,0,1.235,0,1.588-.353a2.372,2.372,0,0,0,1.059-1.235h1.941a4.174,4.174,0,0,1-1.941,2.294,5.178,5.178,0,0,1-2.823.706,4.6,4.6,0,0,1-2.647-.706,5.1,5.1,0,0,1-1.941-1.941,4.98,4.98,0,0,1-.706-2.647,4.6,4.6,0,0,1,.706-2.647" transform="translate(-175.1 -63.524)" fill="#fff"/>
        <path id="Tracé_11337" data-name="Tracé 11337" d="M183.365,74.011a1.866,1.866,0,0,1-1.235-1.059,2.157,2.157,0,0,1-.529-1.588h1.765a1.258,1.258,0,0,0,.529,1.059,1.489,1.489,0,0,0,1.235.353,1.9,1.9,0,0,0,1.412-.353,1.525,1.525,0,0,0,.529-1.059.971.971,0,0,0-.353-.882c-.176-.176-.529-.353-.706-.529a4.489,4.489,0,0,1-1.235-.353,3.349,3.349,0,0,1-1.588-.529,4.679,4.679,0,0,1-1.059-.882c-.353-.353-.353-.882-.353-1.588a2.372,2.372,0,0,1,.353-1.588,3.592,3.592,0,0,1,1.235-1.059,5.221,5.221,0,0,1,1.765-.353,3.734,3.734,0,0,1,2.47.706,2.515,2.515,0,0,1,1.059,2.118h-1.941a.97.97,0,0,0-.529-.882,2.338,2.338,0,0,0-2.47,0,1.258,1.258,0,0,0-.529,1.059c0,.529,0,.529.353.706a2.437,2.437,0,0,0,.706.529,4.49,4.49,0,0,1,1.235.353,8.2,8.2,0,0,1,1.588.529,4.68,4.68,0,0,1,1.059.882,2.157,2.157,0,0,1,.529,1.588c0,.706,0,1.059-.353,1.412a2.372,2.372,0,0,1-1.235,1.059,3.49,3.49,0,0,1-1.941.353,3.8,3.8,0,0,1-1.941-.353" transform="translate(-170.13 -63.6)" fill="#fff"/>
      </g>
    </g>
  </g>
</svg>
